<svg xmlns="http://www.w3.org/2000/svg" xmlns:xlink="http://www.w3.org/1999/xlink" id="Layer_1" x="0px" y="0px" viewBox="0 0 512 512" style="enable-background:new 0 0 512 512;" xml:space="preserve">
<g>
	<g>
		<g>
			<path d="M0,353.424c0,3.819,2.048,7.36,5.376,9.259l143.957,82.261V274.192L0,186.363V353.424z"></path>
			<path d="M170.667,275.92v170.667l333.845-104.32c4.437-1.387,7.488-5.504,7.488-10.176V168.656L170.667,275.92z"></path>
			<path d="M357.291,66.832c-2.581-1.472-5.675-1.835-8.469-0.917L14.805,170.299l146.517,86.187l340.565-107.029L357.291,66.832z      M201.152,220.24c-2.005,3.328-5.547,5.184-9.152,5.184c-1.877,0-3.776-0.491-5.483-1.515l-53.333-32     c-5.056-3.029-6.699-9.579-3.669-14.635c3.029-5.056,9.643-6.656,14.635-3.669l53.333,32     C202.539,208.635,204.181,215.184,201.152,220.24z M265.152,198.928c-2.005,3.328-5.547,5.184-9.152,5.184     c-1.877,0-3.776-0.491-5.483-1.515l-53.333-32c-5.056-3.051-6.699-9.621-3.669-14.656c3.051-5.056,9.643-6.677,14.635-3.648     l53.333,32C266.539,187.323,268.181,193.872,265.152,198.928z M329.152,177.595c-2.005,3.328-5.547,5.184-9.152,5.184     c-1.877,0-3.776-0.491-5.483-1.515l-53.333-32c-5.056-3.051-6.699-9.621-3.669-14.656c3.072-5.056,9.643-6.677,14.635-3.648     l53.333,32C330.539,165.989,332.181,172.539,329.152,177.595z M384,161.445c-1.877,0-3.776-0.491-5.483-1.515l-53.333-32     c-5.056-3.051-6.699-9.621-3.669-14.656c3.051-5.056,9.643-6.656,14.635-3.648l53.333,32c5.056,3.029,6.699,9.579,3.669,14.635     C391.147,159.589,387.605,161.445,384,161.445z"></path>
		</g>
	</g>
</g>
<g>
</g>
<g>
</g>
<g>
</g>
<g>
</g>
<g>
</g>
<g>
</g>
<g>
</g>
<g>
</g>
<g>
</g>
<g>
</g>
<g>
</g>
<g>
</g>
<g>
</g>
<g>
</g>
<g>
</g>
</svg>