<svg xmlns="http://www.w3.org/2000/svg" id="Solid" height="512" viewBox="0 0 512 512" width="512"><path d="m189.062 192h22.657l21.333-32h-47.99z"></path><path d="m230.948 192h18.712l-1.101-26.417z"></path><path d="m328 48h-80v96h80zm-24 32h-32a8 8 0 0 1 0-16h32a8 8 0 0 1 0 16z"></path><path d="m376 160h-32.326l-1.334 32h33.66z"></path><path d="m478.162 160h-55.1l-4 32h52.433z"></path><path d="m435.056 112h-22.112l-16 32h54.112z"></path><path d="m359.306 256h-19.632l-1.334 32h18.299z"></path><path d="m468.162 208h-30.065l25.617 21.348z"></path><path d="m413.062 240h38.441l-34.814-29.012z"></path><path d="m458.162 256h-47.1l-4 32h44.433z"></path><path d="m440 88a8.009 8.009 0 0 0 -8-8h-16a8.009 8.009 0 0 0 -8 8v8h32z"></path><path d="m341.674 208-.767 18.4 21.467-18.4z"></path><path d="m344 48h16v96h-16z"></path><path d="m406.938 160h-14.938v32h10.938z"></path><path d="m396.938 240 4-32h-13.978l-37.334 32z"></path><path d="m448.162 304h-23.517l18.658 23.322z"></path><path d="m191.062 208 4 32h19.494l-5.333-32z"></path><path d="m266.34 208 1.334 32h17.227l-10.667-32z"></path><path d="m304 256h-35.66l1.081 25.935z"></path><path d="m230.777 240h20.883l-1.334-32h-24.882z"></path><path d="m253.66 288-1.334-32h-55.264l4 32z"></path><path d="m327.66 160h-63.32l1.334 32h60.652z"></path><path d="m390.938 288 4-32h-19.577l-2.667 32z"></path><path d="m323.434 261.425-35.434 26.575h34.326z"></path><path d="m325.66 208h-34.561l10.667 32h22.56z"></path><path d="m376 440a24 24 0 1 0 24-24 24.028 24.028 0 0 0 -24 24zm24-8a8 8 0 1 1 -8 8 8 8 0 0 1 8-8z"></path><path d="m184.938 288-3.112-24.895-20.745 24.895z"></path><path d="m152 440a24 24 0 1 0 24-24 24.028 24.028 0 0 0 -24 24zm24-8a8 8 0 1 1 -8 8 8 8 0 0 1 8-8z"></path><path d="m464 400h-320a16.019 16.019 0 0 1 -16-16v-16a16.019 16.019 0 0 1 16-16h294.16l3.33-16h-11.735l-24.816-31.019-3.877 31.019h-16.124l4-32h-17.577l-2.667 32h-16.055l2.667-32h-17.632l-1.334 32h-16.014l1.334-32h-51.32l1.334 32h-16.014l-1.334-32h-22.326v32h-16v-32h-12.938l4 32h-16.124l-4-32h-44.128l-3.764-16h1.207l26.666-32h-35.4l-3.519-14.943v-1.057h50.938l-4-32h-54.716l-3.765-16h56.481l-4-32h-60.011l-3.765-16h126.838v-48.744a18.518 18.518 0 0 0 -28.723 4.592 8 8 0 0 1 -14.544-1.093 28.836 28.836 0 0 0 -27.133-18.755c-15.88 0-28.8 12.667-28.8 28.235l.012.41a8 8 0 0 1 -9.57 7.956 18.809 18.809 0 0 0 -3.7-.366 18.237 18.237 0 0 0 -16.4 9.97 7.947 7.947 0 0 1 -1.65 2.185l-13.702-58.22a8 8 0 0 0 -7.79-6.17h-56a8 8 0 0 0 0 16h49.66l60.6 257.522a32.055 32.055 0 0 0 -22.26 30.478v16a32.036 32.036 0 0 0 32 32h320a8 8 0 0 0 0-16z"></path></svg>