<svg xmlns="http://www.w3.org/2000/svg" id="Capa_1" height="512" viewBox="0 0 512 512" width="512"><g><g><g><circle cx="460.053" cy="39.825" r="8.081"></circle><circle cx="427.728" cy="39.825" r="8.081"></circle><circle cx="395.402" cy="39.825" r="8.081"></circle><path d="m504.5 0h-497c-4.142 0-7.5 3.357-7.5 7.5v147.34c0 4.143 3.358 7.5 7.5 7.5s7.5-3.357 7.5-7.5v-75.19h482v110.85c0 4.143 3.358 7.5 7.5 7.5s7.5-3.357 7.5-7.5v-183c0-4.143-3.358-7.5-7.5-7.5zm-489.5 15h482v49.65h-482z"></path><path d="m504.5 218c-4.142 0-7.5 3.357-7.5 7.5v206.85h-21.37v-148.07c0-4.143-3.358-7.5-7.5-7.5h-83.359c-1.495-1.133-3.183-2.047-5.037-2.672l-24.54-8.273c9.419-16.847 14.373-35.771 14.373-55.293 0-62.621-50.946-113.567-113.567-113.567s-113.567 50.946-113.567 113.567c0 24.041 7.473 47.041 21.299 66.237h-119.862c-4.142 0-7.5 3.357-7.5 7.5v84.739c0 4.143 3.358 7.5 7.5 7.5s7.5-3.357 7.5-7.5v-12.59h409.26v140.572h-409.26v-92.98c0-4.143-3.358-7.5-7.5-7.5s-7.5 3.357-7.5 7.5v28.33h-21.37v-242.51c0-4.143-3.358-7.5-7.5-7.5s-7.5 3.357-7.5 7.5v250.01c0 4.143 3.358 7.5 7.5 7.5h28.87v57.15c0 4.143 3.358 7.5 7.5 7.5h424.26c4.142 0 7.5-3.357 7.5-7.5v-57.15h28.87c4.142 0 7.5-3.357 7.5-7.5v-214.35c0-4.143-3.358-7.5-7.5-7.5zm-127.791 72.644c.037.656-.109 1.854-1.498 2.502l-25.236 11.767v.001c-3.744 1.745-6.768 4.769-8.514 8.514l-11.767 25.237c-.648 1.388-1.847 1.529-2.502 1.498-.657-.037-1.832-.315-2.321-1.767l-23.789-70.566c-.449-1.33.2-2.244.625-2.67.325-.324.931-.777 1.79-.777.269 0 .563.045.881.152l70.565 23.789c1.452.488 1.729 1.663 1.766 2.32zm-186.951-80.101c0-36.526 29.716-66.242 66.242-66.242s66.242 29.716 66.242 66.242c0 14.369-4.697 28.287-13.29 39.712-6.322-2.044-13.141-.412-17.851 4.297-3.996 3.996-5.771 9.512-4.972 14.954-9.223 4.736-19.45 7.24-29.905 7.275h-.378c-36.455-.084-66.088-29.764-66.088-66.238zm-32.325 0c0-54.351 44.217-98.567 98.567-98.567s98.567 44.217 98.567 98.567c0 17.888-4.79 35.192-13.872 50.405l-16.9-5.697c8.729-13.203 13.447-28.731 13.447-44.708 0-44.797-36.445-81.242-81.242-81.242s-81.242 36.445-81.242 81.242c0 27.308 13.552 51.501 34.274 66.237h-26.017c-16.518-18.18-25.582-41.576-25.582-66.237zm-106.063 81.237h241.956l16.738 49.649h-258.694zm293.584 49.65 10.101-21.663c.259-.554.706-1.001 1.26-1.26v.001l25.236-11.767c5.958-2.778 9.774-8.517 10.125-14.961h68.955v49.649h-115.677z"></path><path d="m285.969 458.463c3.022 0 5.871-1.84 7.01-4.833l2.694-7.074h18.9l2.662 7.054c1.462 3.874 5.789 5.83 9.665 4.368 3.875-1.462 5.832-5.789 4.369-9.665l-18.042-47.807c-.026-.069-.054-.139-.082-.208-1.333-3.235-4.453-5.324-7.952-5.324-.003 0-.006 0-.01 0-3.502.004-6.622 2.101-7.949 5.342-.023.057-.045.114-.067.172l-18.207 47.805c-1.474 3.87.468 8.203 4.339 9.678.881.334 1.783.492 2.67.492zm22.944-26.907h-7.526l3.78-9.926z"></path><path d="m219.196 395.404c-3.134.977-5.268 3.878-5.268 7.16v48.396c0 4.143 3.358 7.5 7.5 7.5s7.5-3.357 7.5-7.5v-24.338l19.056 27.595c2.149 3.101 5.753 4.411 9.181 3.339 3.487-1.09 5.74-4.32 5.74-8.302l-.453-46.854c-.04-4.117-3.39-7.428-7.498-7.428-.024 0-.049 0-.074 0-4.142.04-7.467 3.431-7.427 7.572l.24 24.854-20.094-29.097c-1.865-2.699-5.269-3.872-8.403-2.897z"></path><path d="m432.449 410.195c4.142 0 7.5-3.357 7.5-7.5s-3.358-7.5-7.5-7.5h-20.245c-4.142 0-7.5 3.357-7.5 7.5v48.045c0 4.143 3.358 7.5 7.5 7.5h20.245c4.142 0 7.5-3.357 7.5-7.5s-3.358-7.5-7.5-7.5h-12.745v-9.022h11.252c4.142 0 7.5-3.357 7.5-7.5s-3.358-7.5-7.5-7.5h-11.252v-9.022h12.745z"></path><path d="m72.051 449.479c0 .453.047.895.124 1.327.135 1.793.904 3.486 2.188 4.761 1.405 1.395 3.304 2.177 5.284 2.177h.028c.403-.002 9.916-.038 13.724-.104 15.054-.263 25.98-13.268 25.98-30.922 0-18.559-10.65-31.027-26.501-31.027h-13.327c-1.992 0-3.901.792-5.308 2.202-1.407 1.409-2.196 3.32-2.192 5.312v.034.002zm20.827-38.789c10.672 0 11.501 12.268 11.501 16.027 0 7.828-3.476 15.788-11.242 15.924-1.417.025-3.714.046-6.016.062-.017-5.409-.047-26.372-.057-32.013z"></path><path d="m368.294 458.461c4.142 0 7.5-3.357 7.5-7.5v-40.987h5.943c4.142 0 7.5-3.357 7.5-7.5s-3.358-7.5-7.5-7.5h-26.777c-4.142 0-7.5 3.357-7.5 7.5s3.358 7.5 7.5 7.5h5.834v40.987c0 4.143 3.358 7.5 7.5 7.5z"></path><path d="m198.371 426.718c0-17.504-14.24-31.744-31.744-31.744s-31.744 14.24-31.744 31.744c0 17.503 14.24 31.743 31.744 31.743s31.744-14.24 31.744-31.743zm-48.488 0c0-9.232 7.511-16.744 16.744-16.744 9.232 0 16.744 7.512 16.744 16.744s-7.511 16.743-16.744 16.743c-9.232 0-16.744-7.511-16.744-16.743z"></path></g></g><path d="m242.282 230.95c-3.234-2.588-7.954-2.064-10.542 1.171-2.588 3.234-2.063 7.954 1.171 10.542 4.634 3.708 10.468 5.682 15.368 6.631v2.665c0 4.143 3.357 7.5 7.5 7.5s7.5-3.357 7.5-7.5v-2.983c9.411-2.59 16.498-9.739 18.225-19.152 2.422-13.198-6.49-22.902-16.397-26.664-.628-.239-1.224-.473-1.828-.709v-15.862c1.696.671 2.746 1.322 2.838 1.38 3.426 2.276 8.053 1.37 10.362-2.042 2.322-3.43 1.424-8.093-2.007-10.415-.291-.197-4.62-3.068-11.193-4.563v-1.824c0-4.143-3.357-7.5-7.5-7.5s-7.5 3.357-7.5 7.5v1.732c-.087.02-.173.035-.261.055-8.782 2.044-15.131 8.673-16.567 17.301-1.324 7.952 1.907 15.645 8.231 19.598 2.358 1.473 5.231 3 8.597 4.568v21.475c-2.217-.671-4.407-1.631-5.997-2.904zm24.468-3.833c-.367 2-1.527 4.007-3.471 5.503v-13.561c2.775 2.062 4.049 4.908 3.471 8.058zm-19.118-32.026c-1.13-.706-1.699-2.521-1.385-4.414.166-.994.654-2.478 2.032-3.649v8.449c-.214-.128-.445-.259-.647-.386z"></path></g></svg>