<svg xmlns="http://www.w3.org/2000/svg" id="Capa_1" height="512" viewBox="0 0 512 512" width="512"><g><path d="m484.5 47.829h-457c-15.164 0-27.5 12.336-27.5 27.5v278.776c0 15.164 12.336 27.5 27.5 27.5h122.287c4.142 0 7.5-3.358 7.5-7.5s-3.358-7.5-7.5-7.5h-122.287c-6.893 0-12.5-5.607-12.5-12.5v-15.333h482v15.333c0 6.893-5.607 12.5-12.5 12.5h-299.798c-4.142 0-7.5 3.358-7.5 7.5s3.358 7.5 7.5 7.5h36.381l-6.557 28.566h-11.357c-19.437 0-35.25 15.813-35.25 35.25v2c0 9.236 7.514 16.75 16.75 16.75h142.661c9.236 0 16.75-7.514 16.75-16.75v-2c0-19.437-15.813-35.25-35.25-35.25h-11.357l-6.557-28.566h193.584c15.164 0 27.5-12.336 27.5-27.5v-278.776c0-15.164-12.336-27.5-27.5-27.5zm-155.419 397.592v2c0 .965-.785 1.75-1.75 1.75h-142.662c-.965 0-1.75-.785-1.75-1.75v-2c0-11.166 9.084-20.25 20.25-20.25h17.311c.009 0 .017.001.026.001.006 0 .011-.001.017-.001h70.952c.006 0 .011.001.017.001.009 0 .017-.001.026-.001h17.311c11.168 0 20.252 9.084 20.252 20.25zm-46.998-35.25h-52.167l6.557-28.566h39.053zm-267.083-86.4v-248.442c0-6.893 5.607-12.5 12.5-12.5h457c6.893 0 12.5 5.607 12.5 12.5v248.443h-482z"></path><path d="m278.851 84.904h-230.298c-9.649 0-17.5 7.851-17.5 17.5v181.792c0 9.649 7.851 17.5 17.5 17.5h230.298c9.649 0 17.5-7.851 17.5-17.5v-115.208c0-4.142-3.358-7.5-7.5-7.5s-7.5 3.358-7.5 7.5v115.208c0 1.378-1.122 2.5-2.5 2.5h-45.597l-2.035-14.961c-1.558-11.457-9.223-21.171-20.003-25.352l-14.944-5.796c12.575-11.894 21.193-30.35 22.91-51.672 1.957-1.479 3.416-3.625 4.018-6.173 1.977-8.354 5.12-29.516-8.352-45.547l-.001-.001c-2.239-2.664-9.052-10.77-21.2-13.767-3.988-.983-8.117-1.311-12.277-.969-4.709.385-9.696-.163-14.821-1.633-9.239-2.65-18.937-2.869-28.047-.635-7.276 1.786-20.949 6.83-30.764 20.555-8.488 11.869-10.594 26.594-6.093 42.581.729 2.59 2.382 4.744 4.536 6.146 1.847 21.356 10.633 39.799 23.366 51.574l-13.762 5.337c-10.78 4.18-18.445 13.895-20.003 25.352l-2.035 14.961h-45.194c-1.378 0-2.5-1.122-2.5-2.5v-181.792c0-1.378 1.122-2.5 2.5-2.5h230.298c1.378 0 2.5 1.122 2.5 2.5v31.542c0 4.142 3.358 7.5 7.5 7.5s7.5-3.358 7.5-7.5v-31.542c0-9.65-7.851-17.5-17.5-17.5zm-158.913 64.566c7.003-9.793 16.875-13.421 22.136-14.712 3.033-.744 6.102-1.116 9.189-1.116 3.701 0 7.427.534 11.149 1.602 6.873 1.971 13.662 2.697 20.183 2.164 2.54-.209 5.047-.012 7.458.583 7.403 1.826 11.542 6.751 13.31 8.855 7.126 8.204 7.305 21.753 5.961 28.821-6.944-1.311-10.472-5.286-15.886-12.911-3.725-5.247-9.54-8.61-15.953-9.227-6.371-.611-12.679 1.559-17.297 5.96-12.038 11.475-30.484 16.082-44.878 16.673-2.227-10.308-.676-19.275 4.628-26.692zm1.456 41.279c12.845-1.253 33.656-5.64 49.144-20.402 2.005-1.911 4.31-2.001 5.51-1.888 2.076.2 3.957 1.286 5.16 2.98 5.912 8.327 11.889 15.526 22.823 18.392-3.072 28.029-20.748 49.89-41.374 49.89-20.38.001-37.907-21.396-41.263-48.972zm-10.75 83.007c.823-6.05 4.871-11.18 10.563-13.388l23.827-9.24c5.55 2.322 11.469 3.594 17.623 3.594 6.457 0 12.655-1.391 18.436-3.932l24.7 9.579c5.692 2.208 9.74 7.337 10.563 13.388l1.76 12.94h-109.232z"></path><path d="m463.447 84.904h-134.415c-9.649 0-17.5 7.851-17.5 17.5v181.792c0 9.649 7.851 17.5 17.5 17.5h134.415c9.649 0 17.5-7.851 17.5-17.5v-181.792c0-9.65-7.851-17.5-17.5-17.5zm0 201.792h-134.415c-1.378 0-2.5-1.122-2.5-2.5v-20.681h83.341c4.142 0 7.5-3.358 7.5-7.5s-3.358-7.5-7.5-7.5h-83.341v-146.111c0-1.378 1.122-2.5 2.5-2.5h134.415c1.378 0 2.5 1.122 2.5 2.5v146.111h-21.096c-4.142 0-7.5 3.358-7.5 7.5s3.358 7.5 7.5 7.5h21.096v20.681c0 1.378-1.122 2.5-2.5 2.5z"></path><path d="m349.061 166.619h93.649c4.142 0 7.5-3.358 7.5-7.5s-3.358-7.5-7.5-7.5h-93.649c-4.142 0-7.5 3.358-7.5 7.5s3.358 7.5 7.5 7.5z"></path><path d="m450.21 219.481c0-4.142-3.358-7.5-7.5-7.5h-93.649c-4.142 0-7.5 3.358-7.5 7.5s3.358 7.5 7.5 7.5h93.649c4.142 0 7.5-3.358 7.5-7.5z"></path><path d="m349.061 136.438h50.447c4.142 0 7.5-3.358 7.5-7.5s-3.358-7.5-7.5-7.5h-50.447c-4.142 0-7.5 3.358-7.5 7.5s3.358 7.5 7.5 7.5z"></path><path d="m349.061 196.8h50.447c4.142 0 7.5-3.358 7.5-7.5s-3.358-7.5-7.5-7.5h-50.447c-4.142 0-7.5 3.358-7.5 7.5s3.358 7.5 7.5 7.5z"></path></g></svg>