<?xml version="1.0" encoding="utf-8"?>
<!-- Generator: Adobe Illustrator 19.2.0, SVG Export Plug-In . SVG Version: 6.00 Build 0)  -->
<svg version="1.1" id="Layer_1" xmlns="http://www.w3.org/2000/svg" xmlns:xlink="http://www.w3.org/1999/xlink" x="0px" y="0px"
	 viewBox="0 0 15.4 13" style="enable-background:new 0 0 15.4 13;" xml:space="preserve">
<style type="text/css">
	.st0{fill:#FFFFFF;}
</style>
<polygon class="st0" points="6.3,11.4 1.8,8.6 1.4,3.6 10,1 14.6,2.6 14.6,7.4 "/>
<g>
	<path d="M14.6,7.4L6.8,12c-0.1,0.1-0.3,0.1-0.4,0.1S6.1,12,6,12L1.3,9.4C1,9.3,0.8,9,0.8,8.7L0.7,4.9c0,0-0.1-0.3,0.2-1.4L10,1
		l4.6,1.6C14.7,3.2,14.6,7.4,14.6,7.4z M14.3,2.8L10,1.4L1.8,3.8l4.6,2L14.3,2.8z M14.3,6.9V3.3L6.8,6.2V11L14.3,6.9z"/>
</g>
<g>
</g>
<g>
</g>
<g>
</g>
<g>
</g>
<g>
</g>
<g>
</g>
</svg>
