<?xml version="1.0" encoding="utf-8"?>
<!-- Generator: Adobe Illustrator 27.5.0, SVG Export Plug-In . SVG Version: 6.00 Build 0)  -->
<svg version="1.1" id="Layer_1" xmlns="http://www.w3.org/2000/svg" xmlns:xlink="http://www.w3.org/1999/xlink" x="0px" y="0px"
	 viewBox="0 0 110 110" style="enable-background:new 0 0 110 110;" xml:space="preserve">
<style type="text/css">
	.st0{fill:#EE3C23;}
</style>
<path class="st0" d="M102,42.1l-37.2-10L58.3,7.8c-0.5-2-2.7-3.2-4.9-2.6L8,17.3C5.9,17.9,4.6,20,5.1,22l16.1,60.3
	c0.5,2,2.7,3.2,4.9,2.6l18.1-4.8l-2.5,9.2c-0.5,2,0.7,4.1,2.9,4.7l40.6,10.9c2.1,0.6,4.3-0.6,4.9-2.6L105,46.9
	C105.4,44.8,104.1,42.6,102,42.1z M13.2,23.2l39.1-10.5l14.5,54.1L27.7,77.2L13.2,23.2z M83.4,97.3L49.3,88L52,78l19.5-5.2
	c2.1-0.6,3.4-2.7,2.9-4.7L66.9,40l29.7,8.2L83.4,97.3z"/>
</svg>
