<?xml version="1.0" encoding="utf-8"?>
<!-- Generator: Adobe Illustrator 27.5.0, SVG Export Plug-In . SVG Version: 6.00 Build 0)  -->
<svg version="1.1" id="Layer_1" xmlns="http://www.w3.org/2000/svg" xmlns:xlink="http://www.w3.org/1999/xlink" x="0px" y="0px"
	 viewBox="0 0 110 110" style="enable-background:new 0 0 110 110;" xml:space="preserve">
<style type="text/css">
	.st0{fill:#EE3C23;}
</style>
<g>
	<path class="st0" d="M34.9,87.6c-17.3,0-31.4-7.7-31.4-17.3c0,3.6,0,6.8,0,6.8c0,9.6,14.1,17.4,31.4,17.4
		c17.4,0,31.4-7.8,31.4-17.4v-6.9C66.3,79.8,52.2,87.6,34.9,87.6z M34.9,99.6c-17.3,0-31.4-7.7-31.4-17.3c0,3.6,0,6.8,0,6.8
		c0,9.6,14.1,17.4,31.4,17.4c17.4,0,31.4-7.8,31.4-17.4v-6.9C66.3,91.9,52.2,99.6,34.9,99.6z"/>
	<g>
		<path class="st0" d="M75.1,79.5c-1,0-2,0-3-0.1c0,0.3,0,0.6-0.1,0.9c0.2,0.6,0.3,1.3,0.3,1.9v4.1c0.9,0,1.8,0.1,2.8,0.1
			c17.4,0,31.4-7.8,31.4-17.4v-6.9C106.6,71.8,92.5,79.5,75.1,79.5z"/>
		<path class="st0" d="M75.1,67.4c-1,0-2,0-3-0.1c0,0.3,0,0.6-0.1,0.9c0.2,0.6,0.3,1.3,0.3,1.9v4.1c0.9,0,1.8,0.1,2.8,0.1
			c17.4,0,31.4-7.8,31.4-17.4V50C106.6,59.7,92.5,67.4,75.1,67.4z"/>
		<path class="st0" d="M75.1,43.3c-17.3,0-31.4-7.7-31.4-17.3c0,3.6,0,6.8,0,6.8c0,4.1,2.6,7.9,6.9,10.8c4.3,1.2,8.2,2.9,11.4,4.9
			c4,1,8.4,1.6,13.1,1.6c17.4,0,31.4-7.8,31.4-17.4V26C106.6,35.5,92.5,43.3,75.1,43.3z"/>
		<path class="st0" d="M75.1,55.4c-2.1,0-4.2-0.1-6.2-0.3c1.6,2.2,2.7,4.6,3.1,7.2c1,0.1,2,0.1,3,0.1c17.4,0,31.4-7.8,31.4-17.4v-7
			C106.6,47.6,92.5,55.4,75.1,55.4z"/>
	</g>
	<path class="st0" d="M75.1,3.4c-17.4,0-31.4,7.8-31.4,17.4s14.1,17.4,31.4,17.4c17.4,0,31.4-7.8,31.4-17.4S92.5,3.4,75.1,3.4z"/>
	<path class="st0" d="M34.9,47.7c-17.4,0-31.4,7.8-31.4,17.4s14.1,17.4,31.4,17.4c17.4,0,31.4-7.8,31.4-17.4S52.2,47.7,34.9,47.7z"
		/>
</g>
</svg>
