<?xml version="1.0" encoding="utf-8"?>
<!-- Generator: Adobe Illustrator 27.5.0, SVG Export Plug-In . SVG Version: 6.00 Build 0)  -->
<svg version="1.1" id="Layer_1" xmlns="http://www.w3.org/2000/svg" xmlns:xlink="http://www.w3.org/1999/xlink" x="0px" y="0px"
	 viewBox="0 0 110 110" style="enable-background:new 0 0 110 110;" xml:space="preserve">
<style type="text/css">
	.st0{fill:#EE3C23;}
</style>
<g>
	<path class="st0" d="M108.3,101.9c0,0-0.2-20.2-1.4-22.3c-1.8-3.1-6.1-5.3-14-8.6c-8-3.2-10.5-6-10.5-12c0-3.6,2.4-2.4,3.5-9
		c0.4-2.7,2.6,0,3-6.3c0-2.5-1.2-3.1-1.2-3.1s0.6-3.7,0.8-6.5c0.3-3.5-1.8-12.6-12.8-12.6s-13,9.1-12.8,12.6
		c0.2,2.8,0.8,6.5,0.8,6.5s-1.2,0.6-1.2,3.1c0.4,6.2,2.5,3.5,3,6.3c1.1,6.6,3.5,5.4,3.5,9c0,4.1-1.2,6.7-4.4,8.9
		C82,76.6,84.3,78.3,84.3,86.1V102L108.3,101.9L108.3,101.9z M56.2,74.1C45.6,69.7,42.3,65.9,42.3,58c0-4.8,3.2-3.2,4.6-12
		c0.6-3.6,3.4-0.1,4-8.4c0-3.3-1.6-4.1-1.6-4.1s0.8-4.9,1.1-8.7C50.8,20.1,48,8,33.4,8S16,20.1,16.4,24.8c0.3,3.8,1.1,8.7,1.1,8.7
		S16,34.3,16,37.7c0.5,8.3,3.4,4.7,4,8.4c1.4,8.8,4.6,7.2,4.6,12c0,8-3.4,11.7-13.9,16.1c-3.2,1.3-9,3.4-9,8.4V102h74.1
		c0,0,0-11.5,0-14.6C75.8,82.8,66.8,78.5,56.2,74.1z"/>
</g>
</svg>
